solid OpenSCAD_Model
  facet normal -1 -0 -0
    outer loop
      vertex -17.5 -4.5 -13.5
      vertex -17.5 -4.5 13.5
      vertex -17.5 4.5 -13.5
    endloop
  endfacet
  facet normal -1 0 0
    outer loop
      vertex -17.5 4.5 -13.5
      vertex -17.5 -4.5 13.5
      vertex -17.5 4.5 13.5
    endloop
  endfacet
  facet normal 0 -1 0
    outer loop
      vertex -17.5 -4.5 13.5
      vertex -17.5 -4.5 -13.5
      vertex -9.5 -4.5 -13.5
    endloop
  endfacet
  facet normal 0 -1 0
    outer loop
      vertex -0.5 -4.5 -12.5
      vertex -17.5 -4.5 13.5
      vertex -9.5 -4.5 -12.5
    endloop
  endfacet
  facet normal 0 -1 0
    outer loop
      vertex -9.5 -4.5 -12.5
      vertex -17.5 -4.5 13.5
      vertex -9.5 -4.5 -13.5
    endloop
  endfacet
  facet normal 0 -1 0
    outer loop
      vertex 9 -4.5 -13.5
      vertex -17.5 -4.5 13.5
      vertex -0.5 -4.5 -12.5
    endloop
  endfacet
  facet normal 0 -1 0
    outer loop
      vertex 0 -4.5 -13.5
      vertex -0.5 -4.5 -12.5
      vertex -0.5 -4.5 -13.5
    endloop
  endfacet
  facet normal 0 -1 0
    outer loop
      vertex 9 -4.5 -13.5
      vertex -0.5 -4.5 -12.5
      vertex 0 -4.5 -13.5
    endloop
  endfacet
  facet normal 0 -1 0
    outer loop
      vertex 9 -4.5 -39.5
      vertex 0 -4.5 -13.5
      vertex 0 -4.5 -39.5
    endloop
  endfacet
  facet normal 0 -1 0
    outer loop
      vertex 9 -4.5 -13.5
      vertex 0 -4.5 -13.5
      vertex 9 -4.5 -39.5
    endloop
  endfacet
  facet normal 0 -1 0
    outer loop
      vertex 17.5 -4.5 -13.5
      vertex -17.5 -4.5 13.5
      vertex 9 -4.5 -13.5
    endloop
  endfacet
  facet normal 0 -1 0
    outer loop
      vertex -8.75 -4.5 13.25
      vertex -17.5 -4.5 13.5
      vertex 17.5 -4.5 -13.5
    endloop
  endfacet
  facet normal 0 -1 0
    outer loop
      vertex 17.5 -4.5 13.5
      vertex 8.75 -4.5 13.5
      vertex 17.5 -4.5 -13.5
    endloop
  endfacet
  facet normal 0 -1 0
    outer loop
      vertex 8.75 -4.5 13.5
      vertex 8.75 -4.5 13.25
      vertex 17.5 -4.5 -13.5
    endloop
  endfacet
  facet normal 0 -1 0
    outer loop
      vertex 8.75 -4.5 13.25
      vertex -8.75 -4.5 13.25
      vertex 17.5 -4.5 -13.5
    endloop
  endfacet
  facet normal 0 -1 0
    outer loop
      vertex -8.75 -4.5 13.25
      vertex -8.75 -4.5 13.5
      vertex -17.5 -4.5 13.5
    endloop
  endfacet
  facet normal -0 -0 -1
    outer loop
      vertex -17.5 -4.5 -13.5
      vertex -17.5 4.5 -13.5
      vertex -9.5 -4.5 -13.5
    endloop
  endfacet
  facet normal 0 -0 -1
    outer loop
      vertex -0.5 4.1 -13.5
      vertex -17.5 4.5 -13.5
      vertex 0 4.5 -13.5
    endloop
  endfacet
  facet normal -0 0 -1
    outer loop
      vertex -0.5 -4.5 -13.5
      vertex 0 4.5 -13.5
      vertex 0 -4.5 -13.5
    endloop
  endfacet
  facet normal -0 -0 -1
    outer loop
      vertex -9.5 4.1 -13.5
      vertex -17.5 4.5 -13.5
      vertex -0.5 4.1 -13.5
    endloop
  endfacet
  facet normal 0 0 -1
    outer loop
      vertex -9.5 -4.5 -13.5
      vertex -17.5 4.5 -13.5
      vertex -9.5 4.1 -13.5
    endloop
  endfacet
  facet normal -0 0 -1
    outer loop
      vertex -0.5 4.1 -13.5
      vertex 0 4.5 -13.5
      vertex -0.5 -4.5 -13.5
    endloop
  endfacet
  facet normal 0 1 0
    outer loop
      vertex -17.5 4.5 -13.5
      vertex -17.5 4.5 13.5
      vertex 0 4.5 -13.5
    endloop
  endfacet
  facet normal 0 1 0
    outer loop
      vertex -8.75 4.5 13.25
      vertex -17.5 4.5 13.5
      vertex -8.75 4.5 13.5
    endloop
  endfacet
  facet normal 0 1 0
    outer loop
      vertex 0 4.5 -13.5
      vertex -17.5 4.5 13.5
      vertex -8.75 4.5 13.25
    endloop
  endfacet
  facet normal 0 1 0
    outer loop
      vertex 8.75 4.5 13.25
      vertex 8.75 4.5 13.5
      vertex 17.5 4.5 13.5
    endloop
  endfacet
  facet normal 0 1 -0
    outer loop
      vertex 8.75 4.5 13.25
      vertex 17.5 4.5 13.5
      vertex 0 4.5 -13.5
    endloop
  endfacet
  facet normal 0 1 0
    outer loop
      vertex 9 4.5 -13.5
      vertex 17.5 4.5 13.5
      vertex 17.5 4.5 -13.5
    endloop
  endfacet
  facet normal 0 1 0
    outer loop
      vertex 0 4.5 -13.5
      vertex 17.5 4.5 13.5
      vertex 9 4.5 -13.5
    endloop
  endfacet
  facet normal 0 1 0
    outer loop
      vertex 8.75 4.5 13.25
      vertex 0 4.5 -13.5
      vertex -8.75 4.5 13.25
    endloop
  endfacet
  facet normal 0 1 0
    outer loop
      vertex 9 4.5 -13.5
      vertex 9 4.5 -39.5
      vertex 0 4.5 -13.5
    endloop
  endfacet
  facet normal 0 1 -0
    outer loop
      vertex 0 4.5 -13.5
      vertex 9 4.5 -39.5
      vertex 0 4.5 -39.5
    endloop
  endfacet
  facet normal 0 -0 1
    outer loop
      vertex -17.5 4.5 13.5
      vertex -17.5 -4.5 13.5
      vertex -8.75 -4.5 13.5
    endloop
  endfacet
  facet normal 0 0 1
    outer loop
      vertex -8.75 4.5 13.5
      vertex -17.5 4.5 13.5
      vertex -8.75 -4.5 13.5
    endloop
  endfacet
  facet normal -1 -0 -0
    outer loop
      vertex -8.75 -8.75 13.25
      vertex -8.75 -8.75 30.75
      vertex -8.75 -4.5 13.25
    endloop
  endfacet
  facet normal -1 0 -0
    outer loop
      vertex -8.75 -4.5 13.5
      vertex -8.75 -8.75 30.75
      vertex -8.75 8.75 30.75
    endloop
  endfacet
  facet normal -1 -0 0
    outer loop
      vertex -8.75 4.5 13.25
      vertex -8.75 8.75 30.75
      vertex -8.75 8.75 13.25
    endloop
  endfacet
  facet normal -1 -0 0
    outer loop
      vertex -8.75 4.5 13.5
      vertex -8.75 8.75 30.75
      vertex -8.75 4.5 13.25
    endloop
  endfacet
  facet normal -1 0 0
    outer loop
      vertex -8.75 -4.5 13.25
      vertex -8.75 -8.75 30.75
      vertex -8.75 -4.5 13.5
    endloop
  endfacet
  facet normal -1 -0 0
    outer loop
      vertex -8.75 -4.5 13.5
      vertex -8.75 8.75 30.75
      vertex -8.75 4.5 13.5
    endloop
  endfacet
  facet normal -0 -0 -1
    outer loop
      vertex -8.75 -8.75 13.25
      vertex -8.75 -4.5 13.25
      vertex 8.75 -8.75 13.25
    endloop
  endfacet
  facet normal 0 0 -1
    outer loop
      vertex 8.75 -8.75 13.25
      vertex -8.75 -4.5 13.25
      vertex 8.75 -4.5 13.25
    endloop
  endfacet
  facet normal 1 0 -0
    outer loop
      vertex 8.75 -8.75 30.75
      vertex 8.75 -8.75 13.25
      vertex 8.75 -4.5 13.25
    endloop
  endfacet
  facet normal 1 -0 0
    outer loop
      vertex 8.75 4.5 13.5
      vertex 8.75 -8.75 30.75
      vertex 8.75 -4.5 13.5
    endloop
  endfacet
  facet normal 1 -0 0
    outer loop
      vertex 8.75 -4.5 13.5
      vertex 8.75 -8.75 30.75
      vertex 8.75 -4.5 13.25
    endloop
  endfacet
  facet normal 1 0 0
    outer loop
      vertex 8.75 8.75 13.25
      vertex 8.75 -8.75 30.75
      vertex 8.75 4.5 13.5
    endloop
  endfacet
  facet normal 1 -0 0
    outer loop
      vertex 8.75 8.75 13.25
      vertex 8.75 4.5 13.5
      vertex 8.75 4.5 13.25
    endloop
  endfacet
  facet normal 1 0 0
    outer loop
      vertex 8.75 8.75 30.75
      vertex 8.75 -8.75 30.75
      vertex 8.75 8.75 13.25
    endloop
  endfacet
  facet normal 0 -0 1
    outer loop
      vertex 8.75 4.5 13.5
      vertex 8.75 -4.5 13.5
      vertex 17.5 -4.5 13.5
    endloop
  endfacet
  facet normal 0 0 1
    outer loop
      vertex 17.5 4.5 13.5
      vertex 8.75 4.5 13.5
      vertex 17.5 -4.5 13.5
    endloop
  endfacet
  facet normal 1 0 -0
    outer loop
      vertex 17.5 -4.5 13.5
      vertex 17.5 -4.5 -13.5
      vertex 17.5 4.5 -13.5
    endloop
  endfacet
  facet normal 1 0 0
    outer loop
      vertex 17.5 4.5 13.5
      vertex 17.5 -4.5 13.5
      vertex 17.5 4.5 -13.5
    endloop
  endfacet
  facet normal -0 -0 -1
    outer loop
      vertex 9 -4.5 -13.5
      vertex 9 4.5 -13.5
      vertex 17.5 -4.5 -13.5
    endloop
  endfacet
  facet normal 0 0 -1
    outer loop
      vertex 17.5 -4.5 -13.5
      vertex 9 4.5 -13.5
      vertex 17.5 4.5 -13.5
    endloop
  endfacet
  facet normal 1 0 -0
    outer loop
      vertex 9 -4.5 -13.5
      vertex 9 -4.5 -39.5
      vertex 9 4.5 -39.5
    endloop
  endfacet
  facet normal 1 0 0
    outer loop
      vertex 9 4.5 -13.5
      vertex 9 -4.5 -13.5
      vertex 9 4.5 -39.5
    endloop
  endfacet
  facet normal -0 -0 -1
    outer loop
      vertex 0 -4.5 -39.5
      vertex 0 4.5 -39.5
      vertex 9 -4.5 -39.5
    endloop
  endfacet
  facet normal 0 0 -1
    outer loop
      vertex 9 -4.5 -39.5
      vertex 0 4.5 -39.5
      vertex 9 4.5 -39.5
    endloop
  endfacet
  facet normal -1 -0 -0
    outer loop
      vertex 0 -4.5 -39.5
      vertex 0 -4.5 -13.5
      vertex 0 4.5 -39.5
    endloop
  endfacet
  facet normal -1 0 0
    outer loop
      vertex 0 4.5 -39.5
      vertex 0 -4.5 -13.5
      vertex 0 4.5 -13.5
    endloop
  endfacet
  facet normal 1 0 -0
    outer loop
      vertex -0.5 -4.9 -12.5
      vertex -0.5 -4.9 -39.5
      vertex -0.5 4.1 -39.5
    endloop
  endfacet
  facet normal 1 -0 -0
    outer loop
      vertex -0.5 -4.5 -13.5
      vertex -0.5 -4.9 -12.5
      vertex -0.5 4.1 -39.5
    endloop
  endfacet
  facet normal 1 0 0
    outer loop
      vertex -0.5 4.1 -13.5
      vertex -0.5 -4.5 -13.5
      vertex -0.5 4.1 -39.5
    endloop
  endfacet
  facet normal 1 0 0
    outer loop
      vertex -0.5 -4.5 -13.5
      vertex -0.5 -4.5 -12.5
      vertex -0.5 -4.9 -12.5
    endloop
  endfacet
  facet normal 0 -0 1
    outer loop
      vertex -9.5 -4.5 -12.5
      vertex -9.5 -4.9 -12.5
      vertex -0.5 -4.9 -12.5
    endloop
  endfacet
  facet normal 0 0 1
    outer loop
      vertex -0.5 -4.5 -12.5
      vertex -9.5 -4.5 -12.5
      vertex -0.5 -4.9 -12.5
    endloop
  endfacet
  facet normal -1 -0 -0
    outer loop
      vertex -9.5 -4.9 -39.5
      vertex -9.5 -4.9 -12.5
      vertex -9.5 4.1 -39.5
    endloop
  endfacet
  facet normal -1 0 0
    outer loop
      vertex -9.5 -4.5 -13.5
      vertex -9.5 -4.9 -12.5
      vertex -9.5 -4.5 -12.5
    endloop
  endfacet
  facet normal -1 0 0
    outer loop
      vertex -9.5 4.1 -39.5
      vertex -9.5 -4.9 -12.5
      vertex -9.5 -4.5 -13.5
    endloop
  endfacet
  facet normal -1 0 0
    outer loop
      vertex -9.5 4.1 -13.5
      vertex -9.5 4.1 -39.5
      vertex -9.5 -4.5 -13.5
    endloop
  endfacet
  facet normal 0 1 0
    outer loop
      vertex -9.5 4.1 -39.5
      vertex -9.5 4.1 -13.5
      vertex -0.5 4.1 -39.5
    endloop
  endfacet
  facet normal 0 1 0
    outer loop
      vertex -0.5 4.1 -39.5
      vertex -9.5 4.1 -13.5
      vertex -0.5 4.1 -13.5
    endloop
  endfacet
  facet normal -0 -0 -1
    outer loop
      vertex -8.75 4.5 13.25
      vertex -8.75 8.75 13.25
      vertex 8.75 4.5 13.25
    endloop
  endfacet
  facet normal 0 0 -1
    outer loop
      vertex 8.75 4.5 13.25
      vertex -8.75 8.75 13.25
      vertex 8.75 8.75 13.25
    endloop
  endfacet
  facet normal 0 1 0
    outer loop
      vertex -2.3 8.75 23
      vertex -8.75 8.75 30.75
      vertex 8.75 8.75 13.25
    endloop
  endfacet
  facet normal 0 1 0
    outer loop
      vertex 2.3 8.75 23
      vertex -8.75 8.75 30.75
      vertex 8.75 8.75 30.75
    endloop
  endfacet
  facet normal 0 1 0
    outer loop
      vertex -8.75 8.75 13.25
      vertex -8.75 8.75 30.75
      vertex -6.3 8.75 23
    endloop
  endfacet
  facet normal 0 1 0
    outer loop
      vertex -8.75 8.75 13.25
      vertex -6.3 8.75 23
      vertex -6.3 8.75 21
    endloop
  endfacet
  facet normal 0 1 0
    outer loop
      vertex -8.75 8.75 13.25
      vertex -6.3 8.75 21
      vertex 8.75 8.75 13.25
    endloop
  endfacet
  facet normal 0 1 -0
    outer loop
      vertex -2.3 8.75 21
      vertex 8.75 8.75 13.25
      vertex -6.3 8.75 21
    endloop
  endfacet
  facet normal 0 1 -0
    outer loop
      vertex 6.3 8.75 21
      vertex 8.75 8.75 13.25
      vertex 2.3 8.75 21
    endloop
  endfacet
  facet normal 0 1 0
    outer loop
      vertex -2.3 8.75 21
      vertex -2.3 8.75 23
      vertex 8.75 8.75 13.25
    endloop
  endfacet
  facet normal 0 1 0
    outer loop
      vertex 2.3 8.75 21
      vertex -8.75 8.75 30.75
      vertex 2.3 8.75 23
    endloop
  endfacet
  facet normal -0 1 0
    outer loop
      vertex 6.3 8.75 23
      vertex 2.3 8.75 23
      vertex 8.75 8.75 30.75
    endloop
  endfacet
  facet normal 0 1 0
    outer loop
      vertex 8.75 8.75 13.25
      vertex -8.75 8.75 30.75
      vertex 2.3 8.75 21
    endloop
  endfacet
  facet normal 0 1 0
    outer loop
      vertex 8.75 8.75 13.25
      vertex 6.3 8.75 21
      vertex 8.75 8.75 30.75
    endloop
  endfacet
  facet normal 0 1 0
    outer loop
      vertex 6.3 8.75 21
      vertex 6.3 8.75 23
      vertex 8.75 8.75 30.75
    endloop
  endfacet
  facet normal 0 1 0
    outer loop
      vertex -6.3 8.75 23
      vertex -8.75 8.75 30.75
      vertex -2.3 8.75 23
    endloop
  endfacet
  facet normal 0 -0 1
    outer loop
      vertex -8.75 8.75 30.75
      vertex -8.75 -8.75 30.75
      vertex 8.75 -8.75 30.75
    endloop
  endfacet
  facet normal 0 0 1
    outer loop
      vertex 8.75 8.75 30.75
      vertex -8.75 8.75 30.75
      vertex 8.75 -8.75 30.75
    endloop
  endfacet
  facet normal 0 -1 0
    outer loop
      vertex -8.75 -8.75 30.75
      vertex -8.75 -8.75 13.25
      vertex 8.75 -8.75 13.25
    endloop
  endfacet
  facet normal 0 -1 0
    outer loop
      vertex 8.75 -8.75 30.75
      vertex -8.75 -8.75 30.75
      vertex 8.75 -8.75 13.25
    endloop
  endfacet
  facet normal 0 -1 0
    outer loop
      vertex -9.5 -4.9 -12.5
      vertex -9.5 -4.9 -39.5
      vertex -0.5 -4.9 -39.5
    endloop
  endfacet
  facet normal 0 -1 0
    outer loop
      vertex -0.5 -4.9 -12.5
      vertex -9.5 -4.9 -12.5
      vertex -0.5 -4.9 -39.5
    endloop
  endfacet
  facet normal -0 -0 -1
    outer loop
      vertex -9.5 -4.9 -39.5
      vertex -9.5 4.1 -39.5
      vertex -0.5 -4.9 -39.5
    endloop
  endfacet
  facet normal 0 0 -1
    outer loop
      vertex -0.5 -4.9 -39.5
      vertex -9.5 4.1 -39.5
      vertex -0.5 4.1 -39.5
    endloop
  endfacet
  facet normal 1 0 0
    outer loop
      vertex -6.3 8.75 21
      vertex -6.3 8.75 23
      vertex -6.3 5 23
    endloop
  endfacet
  facet normal 1 0 0
    outer loop
      vertex -6.3 5 21
      vertex -6.3 8.75 21
      vertex -6.3 5 23
    endloop
  endfacet
  facet normal 0 0 -1
    outer loop
      vertex -2.3 8.75 23
      vertex -2.3 7 23
      vertex -6.3 8.75 23
    endloop
  endfacet
  facet normal 0 0 -1
    outer loop
      vertex -6.3 8.75 23
      vertex -2.3 7 23
      vertex -4.3 7 23
    endloop
  endfacet
  facet normal 0 0 -1
    outer loop
      vertex -6.3 8.75 23
      vertex -4.3 7 23
      vertex -4.3 5 23
    endloop
  endfacet
  facet normal 0 0 -1
    outer loop
      vertex -6.3 8.75 23
      vertex -4.3 5 23
      vertex -6.3 5 23
    endloop
  endfacet
  facet normal -1 0 0
    outer loop
      vertex -2.3 8.75 23
      vertex -2.3 8.75 21
      vertex -2.3 7 23
    endloop
  endfacet
  facet normal -1 0 0
    outer loop
      vertex -2.3 7 23
      vertex -2.3 8.75 21
      vertex -2.3 7 21
    endloop
  endfacet
  facet normal 0 0 1
    outer loop
      vertex -2.3 8.75 21
      vertex -4.3 7 21
      vertex -2.3 7 21
    endloop
  endfacet
  facet normal 0 0 1
    outer loop
      vertex -6.3 8.75 21
      vertex -4.3 7 21
      vertex -2.3 8.75 21
    endloop
  endfacet
  facet normal 0 0 1
    outer loop
      vertex -4.3 5 21
      vertex -4.3 7 21
      vertex -6.3 8.75 21
    endloop
  endfacet
  facet normal 0 0 1
    outer loop
      vertex -6.3 5 21
      vertex -4.3 5 21
      vertex -6.3 8.75 21
    endloop
  endfacet
  facet normal 1 0 0
    outer loop
      vertex 2.3 8.75 21
      vertex 2.3 8.75 23
      vertex 2.3 7 23
    endloop
  endfacet
  facet normal 1 0 0
    outer loop
      vertex 2.3 7 21
      vertex 2.3 8.75 21
      vertex 2.3 7 23
    endloop
  endfacet
  facet normal -0 -0 -1
    outer loop
      vertex 2.3 7 23
      vertex 2.3 8.75 23
      vertex 4.3 7 23
    endloop
  endfacet
  facet normal 0 0 -1
    outer loop
      vertex 6.3 8.75 23
      vertex 6.3 5 23
      vertex 4.3 7 23
    endloop
  endfacet
  facet normal 0 0 -1
    outer loop
      vertex 6.3 8.75 23
      vertex 4.3 7 23
      vertex 2.3 8.75 23
    endloop
  endfacet
  facet normal 0 0 -1
    outer loop
      vertex 4.3 7 23
      vertex 6.3 5 23
      vertex 4.3 5 23
    endloop
  endfacet
  facet normal -1 0 0
    outer loop
      vertex 6.3 8.75 23
      vertex 6.3 8.75 21
      vertex 6.3 5 23
    endloop
  endfacet
  facet normal -1 0 0
    outer loop
      vertex 6.3 5 23
      vertex 6.3 8.75 21
      vertex 6.3 5 21
    endloop
  endfacet
  facet normal 0 -0 1
    outer loop
      vertex 4.3 7 21
      vertex 4.3 5 21
      vertex 6.3 5 21
    endloop
  endfacet
  facet normal 0 0 1
    outer loop
      vertex 2.3 8.75 21
      vertex 4.3 7 21
      vertex 6.3 8.75 21
    endloop
  endfacet
  facet normal 0 0 1
    outer loop
      vertex 6.3 8.75 21
      vertex 4.3 7 21
      vertex 6.3 5 21
    endloop
  endfacet
  facet normal 0 0 1
    outer loop
      vertex 2.3 7 21
      vertex 4.3 7 21
      vertex 2.3 8.75 21
    endloop
  endfacet
  facet normal 0 1 0
    outer loop
      vertex -4.3 5 23
      vertex -4.3 5 21
      vertex -6.3 5 23
    endloop
  endfacet
  facet normal 0 1 -0
    outer loop
      vertex -6.3 5 23
      vertex -4.3 5 21
      vertex -6.3 5 21
    endloop
  endfacet
  facet normal -1 0 0
    outer loop
      vertex -4.3 7 23
      vertex -4.3 7 21
      vertex -4.3 5 23
    endloop
  endfacet
  facet normal -1 0 0
    outer loop
      vertex -4.3 5 23
      vertex -4.3 7 21
      vertex -4.3 5 21
    endloop
  endfacet
  facet normal 0 1 0
    outer loop
      vertex -2.3 7 23
      vertex -2.3 7 21
      vertex -4.3 7 23
    endloop
  endfacet
  facet normal 0 1 -0
    outer loop
      vertex -4.3 7 23
      vertex -2.3 7 21
      vertex -4.3 7 21
    endloop
  endfacet
  facet normal 0 1 0
    outer loop
      vertex 4.3 7 23
      vertex 4.3 7 21
      vertex 2.3 7 23
    endloop
  endfacet
  facet normal 0 1 -0
    outer loop
      vertex 2.3 7 23
      vertex 4.3 7 21
      vertex 2.3 7 21
    endloop
  endfacet
  facet normal 1 0 0
    outer loop
      vertex 4.3 7 21
      vertex 4.3 7 23
      vertex 4.3 5 23
    endloop
  endfacet
  facet normal 1 0 0
    outer loop
      vertex 4.3 5 21
      vertex 4.3 7 21
      vertex 4.3 5 23
    endloop
  endfacet
  facet normal 0 1 0
    outer loop
      vertex 6.3 5 23
      vertex 6.3 5 21
      vertex 4.3 5 23
    endloop
  endfacet
  facet normal 0 1 -0
    outer loop
      vertex 4.3 5 23
      vertex 6.3 5 21
      vertex 4.3 5 21
    endloop
  endfacet
endsolid OpenSCAD_Model
